<svg width="17" height="16" viewBox="0 0 17 16" fill="none" xmlns="http://www.w3.org/2000/svg">
<g clip-path="url(#clip0_62_1467)">
<path d="M16.2684 0H0V16H16.2684V0Z" fill="white" fill-opacity="0.01"/>
<path d="M8.13424 14.6666C8.13424 14.6666 13.2181 10.6666 13.2181 6.33325C13.2181 3.57182 10.942 1.33325 8.13424 1.33325C5.32648 1.33325 3.05035 3.57182 3.05035 6.33325C3.05035 10.6666 8.13424 14.6666 8.13424 14.6666Z" stroke="#736F75" stroke-linejoin="round"/>
<path d="M8.1342 8.33325C9.2573 8.33325 10.1678 7.43782 10.1678 6.33325C10.1678 5.22869 9.2573 4.33325 8.1342 4.33325C7.0111 4.33325 6.10065 5.22869 6.10065 6.33325C6.10065 7.43782 7.0111 8.33325 8.1342 8.33325Z" stroke="#736F75" stroke-linejoin="round"/>
</g>
<defs>
<clipPath id="clip0_62_1467">
<rect width="16.2684" height="16" fill="white"/>
</clipPath>
</defs>
</svg>
