<svg width="16" height="16" viewBox="0 0 16 16" fill="none" xmlns="http://www.w3.org/2000/svg">
<g clip-path="url(#clip0_70_610)">
<path d="M15.8367 0H0.163269V15.6735H15.8367V0Z" fill="white" fill-opacity="0.01"/>
<path d="M5.7131 2.50977C5.95033 2.50977 6.1689 2.63843 6.28407 2.84585L7.0829 4.28481C7.18748 4.47322 7.19242 4.7011 7.09602 4.89385L6.32646 6.43302C6.32646 6.43302 6.54948 7.5796 7.48283 8.51296C8.41622 9.44631 9.55895 9.66548 9.55895 9.66548L11.0979 8.89604C11.2907 8.79958 11.5188 8.80458 11.7073 8.90936L13.1503 9.71165C13.3575 9.82688 13.486 10.0453 13.486 10.2824V11.9391C13.486 12.7827 12.7024 13.3921 11.903 13.1223C10.2612 12.5684 7.71277 11.5136 6.09749 9.89829C4.48221 8.28301 3.42743 5.73454 2.87346 4.09278C2.60374 3.2934 3.21307 2.50977 4.05671 2.50977H5.7131Z" stroke="#736F75" stroke-linejoin="round"/>
</g>
<defs>
<clipPath id="clip0_70_610">
<rect width="16" height="16" fill="white"/>
</clipPath>
</defs>
</svg>
